{"glyphs":{"0":{"ha":558,"x_min":42,"x_max":544,"o":"m 544 697 q 491 373 544 531 q 329 113 438 215 q 222 57 271 57 q 167 83 190 57 q 42 436 42 222 q 94 749 42 579 q 233 1014 146 918 q 263 1039 253 1039 q 272 1035 264 1039 q 343 1074 296 1074 q 399 1058 368 1074 q 544 697 544 986 m 432 789 q 363 946 432 897 q 343 953 353 953 q 294 907 313 953 q 247 672 247 782 q 256 575 247 614 q 265 525 265 536 q 254 514 265 514 q 227 533 239 514 q 210 563 215 553 q 197 588 204 574 l 189 604 q 168 386 168 483 q 199 211 168 211 q 225 232 208 211 q 424 706 375 440 q 432 789 432 761 z "},"1":{"ha":285,"x_min":64,"x_max":268,"o":"m 268 881 q 228 562 268 815 q 188 215 188 308 q 200 151 188 193 q 213 92 213 110 q 192 75 213 75 q 107 108 114 75 q 90 167 104 118 q 64 313 64 257 q 186 1013 64 622 q 210 1056 200 1056 q 226 1043 214 1056 q 268 881 268 1000 z "},"2":{"ha":528,"x_min":51,"x_max":529,"o":"m 410 315 q 447 251 447 315 q 422 196 447 221 q 163 85 318 85 q 119 106 133 85 q 82 253 82 167 q 95 365 82 340 q 121 401 108 389 q 299 602 228 504 q 414 817 371 700 q 419 844 419 829 q 417 868 419 858 q 406 884 414 878 q 393 894 399 890 q 376 901 388 899 q 358 906 364 904 q 282 910 314 910 q 242 876 250 910 q 147 735 222 792 q 110 719 126 719 q 67 770 82 719 q 51 858 51 821 q 153 999 51 936 q 167 1021 150 1021 q 181 1015 172 1021 q 304 1046 250 1046 q 407 1006 358 1046 q 437 981 417 997 q 476 948 457 965 q 513 886 496 931 q 529 788 529 842 q 488 642 529 733 q 288 335 411 474 q 278 318 278 319 q 328 308 278 308 l 410 315 z "},"3":{"ha":500,"x_min":51,"x_max":472,"o":"m 119 654 q 124 669 119 665 q 137 676 129 672 q 146 681 144 679 q 325 881 271 747 q 329 903 329 889 q 293 924 329 924 q 267 922 276 924 q 190 849 264 881 q 106 818 115 818 q 61 907 61 818 l 65 974 q 93 1015 67 1003 q 192 1047 139 1033 q 188 1069 188 1058 q 195 1081 188 1081 q 208 1077 203 1081 q 221 1065 214 1074 q 231 1053 228 1056 q 272 1056 244 1056 q 378 1003 325 1056 q 399 974 386 994 q 421 943 413 953 q 453 851 453 907 q 421 733 453 794 q 356 633 389 672 q 324 586 324 593 q 360 543 324 579 q 435 447 397 507 q 472 331 472 388 q 444 218 472 274 q 208 53 381 90 q 170 49 188 49 q 137 53 153 49 q 110 68 121 57 q 90 88 99 79 q 75 115 81 96 q 65 144 69 135 q 58 179 61 154 q 56 211 56 204 q 51 278 51 250 l 51 286 q 92 331 51 321 q 163 342 117 336 q 220 351 208 349 q 238 354 232 354 q 243 344 243 354 q 217 296 243 333 q 190 255 190 258 q 195 251 190 251 q 213 256 200 251 q 331 385 331 297 q 298 460 331 426 q 224 494 265 494 q 179 483 208 494 q 138 471 150 471 q 123 489 125 471 q 121 550 121 507 l 119 654 z "},"4":{"ha":614,"x_min":51,"x_max":610,"o":"m 504 611 q 534 613 511 613 q 583 587 557 613 q 610 533 610 561 q 583 489 610 504 q 489 451 553 474 l 468 256 q 463 90 463 200 q 456 58 463 74 q 438 42 449 42 q 420 46 426 42 q 408 58 414 50 q 397 73 401 65 q 387 92 392 81 q 378 110 382 103 q 372 127 375 117 q 367 140 368 138 q 343 263 343 197 q 351 406 343 264 q 226 376 264 376 q 83 486 110 376 q 51 696 51 614 q 428 1081 51 882 q 466 1089 447 1089 q 494 1069 485 1089 q 517 990 507 1050 q 528 906 528 931 q 504 611 528 829 m 369 824 q 258 721 340 824 q 176 586 176 618 q 206 569 176 569 q 239 572 218 569 q 367 589 322 583 q 375 681 369 621 q 386 801 386 778 q 369 824 386 824 z "},"5":{"ha":521,"x_min":61,"x_max":478,"o":"m 222 1064 q 335 1072 292 1064 q 381 1079 379 1079 q 438 1051 411 1079 q 465 999 465 1024 q 447 960 465 974 q 253 885 363 888 q 213 813 236 865 q 413 669 347 776 q 478 424 478 561 q 411 192 478 286 q 213 51 313 51 q 106 153 132 51 q 85 265 85 231 q 124 321 85 299 q 261 435 185 358 q 276 443 269 443 q 289 417 289 443 q 267 342 289 392 q 246 285 246 293 q 249 278 246 278 q 271 290 254 278 q 372 513 372 375 q 335 613 372 576 q 232 649 299 649 q 111 583 165 649 q 61 765 61 701 q 139 1029 61 829 q 152 1061 147 1056 q 165 1067 157 1067 l 222 1064 z "},"6":{"ha":569,"x_min":50,"x_max":542,"o":"m 138 332 q 175 261 138 271 q 169 325 169 289 q 220 517 169 425 q 354 671 271 610 q 413 692 385 692 q 505 641 468 692 q 542 533 542 590 l 542 518 q 363 111 522 272 q 259 57 311 57 q 176 79 207 57 q 143 113 167 86 q 50 450 50 219 q 100 728 50 603 q 251 981 150 853 q 322 1044 279 1015 q 398 1074 364 1074 q 447 1047 432 1074 q 461 978 461 1021 q 435 889 461 935 q 363 843 410 843 q 344 846 358 843 q 139 354 174 656 l 138 332 m 421 489 q 394 511 421 511 q 369 500 381 511 q 277 387 324 456 q 217 265 231 318 q 322 349 263 285 q 414 468 381 413 q 421 489 421 479 z "},"7":{"ha":478,"x_min":44,"x_max":526,"o":"m 153 843 q 119 828 131 843 q 97 814 108 814 q 57 867 69 814 q 44 963 44 919 q 67 1058 44 1058 q 81 1046 75 1058 q 93 1028 86 1033 q 106 1021 100 1024 q 124 1017 113 1018 q 142 1015 136 1015 q 185 1015 160 1015 q 368 1022 211 1015 q 411 1035 389 1024 q 440 1046 433 1046 q 494 1008 463 1046 q 526 948 526 971 q 510 909 526 925 q 484 872 493 893 q 422 735 475 851 q 290 431 290 443 q 308 397 290 418 q 326 355 326 375 q 296 237 326 335 q 253 106 265 139 q 214 72 240 72 q 178 97 188 72 q 151 258 151 171 q 168 428 151 344 q 201 565 185 511 q 253 717 218 618 q 301 853 289 817 q 211 838 256 838 l 153 843 z "},"8":{"ha":511,"x_min":28,"x_max":489,"o":"m 421 958 q 489 798 489 883 q 364 561 489 713 q 471 283 471 450 q 416 119 471 175 q 254 63 361 63 q 54 189 108 63 q 28 301 28 254 q 44 392 28 349 q 97 479 61 435 q 221 615 143 538 q 143 793 143 714 q 244 1006 143 892 q 354 1068 301 1068 q 403 1047 382 1068 q 418 1012 415 1035 q 424 964 421 989 l 421 958 m 407 864 q 374 906 407 885 q 250 793 272 821 q 236 757 236 779 q 276 671 236 735 q 403 846 367 764 q 407 864 407 854 m 358 306 q 393 369 393 328 q 313 504 393 410 q 220 411 283 472 q 136 326 157 350 q 115 292 115 303 q 214 267 115 267 q 358 306 300 267 z "},"9":{"ha":517,"x_min":54,"x_max":497,"o":"m 200 381 q 189 286 189 292 q 204 264 189 264 q 288 355 250 264 q 326 500 326 446 q 322 511 326 511 q 307 499 317 511 q 286 473 297 488 q 255 447 275 458 q 217 435 235 435 q 176 443 199 435 q 84 534 114 467 q 54 672 54 601 q 76 797 54 743 q 261 1044 138 944 q 317 1067 290 1067 q 363 1051 343 1067 q 497 694 497 960 q 285 100 497 365 q 215 64 256 64 q 154 103 175 64 q 122 192 138 132 q 107 288 107 253 q 144 333 107 322 q 169 347 157 338 q 183 358 181 356 q 200 381 185 361 m 368 846 q 350 946 368 946 q 332 936 342 946 q 165 640 258 867 q 160 622 160 624 q 163 619 160 619 q 194 629 167 619 q 260 678 222 639 q 317 745 299 717 q 368 826 336 774 l 368 846 z "},"A":{"ha":835,"x_min":-42,"x_max":835,"o":"m 450 485 q 518 946 518 792 l 518 982 q 530 1017 518 1006 q 555 1031 542 1029 q 608 1033 568 1033 q 691 1004 647 1033 q 735 925 735 975 q 722 804 735 915 q 706 519 710 693 q 781 560 753 539 q 819 582 810 582 q 835 553 835 582 q 792 481 835 525 q 706 410 749 438 q 708 313 706 379 q 720 315 713 315 q 735 311 728 315 q 749 301 743 307 q 764 285 756 296 q 776 269 772 275 q 788 253 781 264 q 796 242 794 243 q 821 183 821 204 q 813 133 821 161 q 769 -10 781 51 q 736 -39 764 -39 q 694 -23 706 -39 q 676 3 682 -7 q 665 31 669 13 q 657 59 660 49 q 651 92 654 69 q 646 150 647 121 l 644 172 q 631 375 639 239 q 519 360 594 363 q 474 176 497 260 q 399 42 451 92 q 272 -8 347 -8 q 219 -1 250 -8 q -25 225 40 47 q -42 306 -42 271 q 28 419 -42 389 q 321 488 178 488 l 450 485 m 625 499 q 614 871 619 621 q 580 679 603 807 q 546 488 557 551 q 625 499 599 493 m 329 358 q 58 335 160 358 q 1 293 1 324 q 39 232 1 269 q 136 174 76 194 q 236 154 196 154 q 303 168 276 154 q 347 197 331 182 q 378 247 363 213 q 418 358 397 290 l 329 358 z "},"B":{"ha":664,"x_min":-12,"x_max":643,"o":"m 242 892 q 133 886 178 892 q 57 867 88 881 q 18 853 26 853 q 4 856 10 853 q -4 868 -1 860 q -9 884 -7 876 q -12 903 -11 892 q -12 922 -12 915 l -12 960 q 1 994 -12 994 q 10 992 4 994 q 279 1044 139 1044 q 547 922 474 1044 q 589 788 589 851 q 530 660 589 724 q 361 521 471 597 q 635 294 593 450 q 643 239 643 268 q 347 15 643 75 q 257 3 292 3 q 196 19 222 3 q 169 60 169 35 q 186 119 169 86 q 182 234 182 165 q 199 424 182 303 q 176 435 185 425 q 167 459 167 444 q 172 500 167 474 q 178 536 176 526 q 219 613 185 589 q 242 892 238 846 m 464 826 q 416 869 464 846 q 260 892 368 892 q 303 811 303 868 l 303 800 q 296 713 296 747 q 297 667 296 679 q 464 826 464 793 m 514 214 q 543 255 543 231 q 522 306 543 279 q 322 421 465 378 q 297 426 306 426 q 279 422 288 426 q 254 210 256 289 q 298 264 265 239 q 351 289 331 289 q 372 282 372 289 q 341 262 372 272 q 291 231 310 251 q 272 172 272 211 q 310 132 272 132 q 514 214 379 132 z "},"C":{"ha":533,"x_min":42,"x_max":499,"o":"m 499 381 q 360 54 499 200 q 279 24 331 24 q 142 65 196 24 q 42 371 42 142 q 103 690 42 522 q 258 997 164 858 q 279 1014 272 1014 q 295 1010 286 1014 q 315 1000 304 1006 q 329 993 325 994 l 329 1035 q 321 1064 321 1051 q 332 1076 321 1076 q 356 1072 343 1076 q 478 872 478 1031 q 432 688 478 782 q 410 663 419 663 q 389 685 403 663 q 332 922 344 776 q 301 907 311 922 q 268 826 292 892 q 181 342 181 590 q 211 107 181 204 q 367 317 301 192 q 465 575 433 443 q 499 381 499 465 z "},"D":{"ha":681,"x_min":14,"x_max":667,"o":"m 14 910 q 29 938 14 928 q 253 1025 108 990 q 351 1038 313 1038 q 636 796 549 1038 q 667 614 667 710 q 590 322 667 469 q 433 85 514 175 q 339 38 389 38 q 261 76 289 38 q 233 176 233 115 q 256 311 233 236 q 325 406 278 386 q 318 338 318 374 q 342 251 318 303 q 400 200 367 200 q 454 239 433 200 q 540 593 540 394 q 417 899 540 829 q 347 918 381 918 q 275 899 314 918 q 286 748 286 839 q 255 458 286 657 q 224 154 224 258 l 224 110 q 207 63 224 74 q 172 51 190 51 q 100 242 121 51 q 86 344 92 318 q 99 346 90 346 q 157 310 124 346 l 157 346 q 186 746 156 456 q 188 787 188 757 q 182 849 188 817 q 143 819 172 843 q 47 764 75 764 q 18 813 18 764 l 19 856 l 14 910 z "},"E":{"ha":628,"x_min":-14,"x_max":628,"o":"m 201 685 q 394 638 201 638 l 418 638 q 465 658 456 658 q 524 620 489 658 q 560 532 560 582 q 542 515 560 515 q 490 524 536 515 q 438 508 476 519 q 386 493 400 497 q 340 478 372 489 q 294 459 308 467 q 253 438 279 451 q 211 408 228 424 q 139 328 158 357 q 103 224 103 278 q 128 144 103 171 q 210 117 153 117 q 348 145 268 117 q 428 228 428 174 q 419 263 428 246 q 392 281 411 281 q 278 224 374 281 q 178 168 183 168 q 172 180 172 168 q 182 208 172 192 q 288 317 222 276 q 424 357 353 357 q 544 315 494 357 q 593 220 593 274 q 565 131 593 167 q 243 19 481 19 q 25 133 96 19 q -14 249 -14 193 q 21 384 -14 304 q 113 504 56 464 q 261 576 171 544 q 126 747 126 619 q 190 878 126 824 q 333 976 244 925 q 443 1041 421 1026 q 490 1056 465 1056 q 547 1018 515 1056 q 571 1021 564 1021 q 617 993 603 1021 q 628 958 628 967 q 415 824 628 908 q 404 821 407 821 q 396 833 396 821 q 410 886 396 844 l 364 864 q 265 803 283 822 q 217 728 232 763 q 201 685 201 693 z "},"F":{"ha":696,"x_min":28,"x_max":765,"o":"m 558 650 q 754 729 743 729 q 765 712 765 729 q 729 640 765 694 q 539 488 663 536 q 415 139 507 311 q 278 19 354 19 q 185 61 235 19 q 138 122 150 92 q 108 204 119 165 q 96 290 96 243 q 124 385 96 336 q 199 472 151 435 q 392 585 282 540 l 449 607 q 451 715 451 633 q 435 878 451 796 q 371 939 425 939 q 326 928 346 939 q 301 882 307 917 q 163 575 264 699 q 91 524 121 524 q 40 563 61 524 q 34 595 36 574 q 30 629 32 617 q 28 653 28 642 q 117 817 28 722 q 178 906 150 853 q 206 1017 206 960 l 204 1051 q 214 1069 204 1069 q 292 1004 226 1069 q 395 1033 336 1033 q 496 984 454 1033 q 549 856 538 935 q 558 650 561 778 m 358 436 q 273 424 329 429 q 190 413 217 418 q 139 360 139 403 q 196 260 139 317 q 290 204 253 204 q 340 232 326 204 q 424 453 393 326 l 358 436 z "},"G":{"ha":615,"x_min":42,"x_max":632,"o":"m 321 451 q 256 473 281 451 q 231 508 231 494 q 249 531 231 522 q 367 586 267 540 q 508 651 468 632 q 566 671 547 671 q 608 651 585 671 q 632 612 632 631 q 625 581 632 593 q 603 559 618 569 q 578 542 589 549 q 548 527 568 536 q 524 515 528 518 q 493 485 493 501 l 497 472 q 533 338 533 404 q 463 131 533 238 q 294 39 399 39 q 167 66 225 39 q 85 150 108 93 q 42 381 42 258 q 54 524 42 469 q 73 607 67 578 q 97 684 79 636 q 122 753 115 732 q 153 828 129 774 q 183 896 178 883 q 249 1036 222 983 q 302 1068 263 1068 q 386 1053 342 1068 q 451 1017 431 1039 q 490 935 490 975 q 440 817 490 896 q 425 750 425 794 q 404 731 422 731 q 385 738 393 731 q 374 752 376 744 q 369 774 372 760 q 364 792 365 788 q 350 919 350 831 q 339 938 350 938 q 281 818 328 938 q 171 347 171 546 q 188 174 171 240 q 224 144 194 144 q 286 188 253 144 q 379 415 379 308 q 344 453 379 453 l 321 451 z "},"H":{"ha":656,"x_min":-14,"x_max":676,"o":"m 133 469 q 240 493 158 469 q 289 694 256 564 q 342 918 342 896 q 328 940 342 940 q 278 932 311 940 q 246 910 246 924 q 267 876 246 900 q 289 844 289 853 q 288 832 289 835 q 94 631 179 694 q 67 619 81 619 q 24 661 36 619 q 10 694 21 671 q -14 774 -14 747 q 8 826 -14 801 q 250 1028 106 924 q 296 1042 267 1042 q 361 1030 325 1042 q 426 957 397 1018 q 454 862 454 896 q 443 772 454 828 q 390 532 432 715 l 458 547 q 550 1006 485 775 q 553 1022 553 1014 q 546 1042 553 1029 q 539 1060 539 1054 q 547 1067 539 1067 q 564 1060 554 1067 q 621 988 621 1022 q 617 954 621 971 q 558 568 579 782 q 582 569 567 569 q 637 555 597 569 q 676 518 676 540 q 667 501 676 510 q 621 462 657 493 q 572 426 585 431 q 546 418 560 422 q 538 292 538 326 q 549 198 538 258 q 560 119 560 138 q 551 75 560 100 q 525 50 543 50 q 496 65 514 50 q 433 194 433 124 q 444 386 433 264 q 350 357 401 375 q 314 164 314 200 l 328 69 q 314 25 328 47 q 283 3 300 3 q 254 15 265 3 q 230 54 243 28 q 217 82 217 81 q 190 171 190 131 q 206 318 190 211 q 143 346 161 324 q 101 412 125 368 q 76 469 76 456 q 86 482 76 482 l 133 469 z "},"I":{"ha":407,"x_min":28,"x_max":379,"o":"m 288 950 q 268 997 288 997 q 228 968 249 997 q 208 928 208 939 q 215 886 208 917 q 222 823 222 856 q 199 687 222 790 q 160 549 175 583 q 126 515 146 515 q 99 528 111 515 q 72 568 88 542 q 42 613 56 594 q 28 656 28 632 q 71 776 28 679 q 143 929 114 872 q 124 961 124 953 q 147 978 124 978 q 165 972 154 978 q 178 995 168 976 q 192 1021 188 1014 q 206 1042 196 1028 q 225 1064 217 1057 q 275 1081 251 1081 q 378 778 379 1081 q 378 765 378 769 q 303 31 378 444 q 272 0 296 0 q 211 33 246 0 q 158 85 176 67 q 93 156 110 133 q 72 200 72 179 q 88 252 72 221 q 122 283 104 283 q 158 254 140 283 q 186 225 175 225 q 201 247 197 225 q 208 307 204 268 q 253 597 219 389 q 288 907 288 806 l 288 950 z "},"J":{"ha":522,"x_min":-83,"x_max":731,"o":"m 640 1057 q 703 1040 675 1057 q 731 994 731 1022 q 622 914 731 939 q 517 903 567 901 q 418 904 467 904 q 363 735 363 822 q 383 596 363 688 q 422 373 422 435 q 417 278 422 311 q 404 219 411 246 q 383 160 397 192 q 296 78 357 94 q 174 61 235 61 q -42 119 60 61 q -83 188 -83 143 q -79 233 -83 211 q -50 294 -72 286 q 171 339 60 339 q 282 321 282 339 q 244 291 282 308 q 194 267 207 274 q 139 225 163 251 q 165 231 149 226 q 222 238 201 238 q 346 447 346 246 q 326 619 346 506 q 307 794 307 733 q 322 907 307 854 q 115 919 221 911 q 35 976 39 925 q 32 1033 32 1015 q 57 1063 32 1063 l 478 1056 l 640 1057 z "},"K":{"ha":739,"x_min":0,"x_max":794,"o":"m 292 936 q 292 922 292 929 l 292 904 q 227 753 292 829 q 85 628 163 678 q 53 617 65 617 q 15 652 29 617 q 0 712 0 688 q 18 761 0 736 q 281 1017 138 919 q 344 1036 308 1036 q 421 1014 379 1036 q 479 897 479 983 q 460 795 479 856 q 426 687 442 735 q 407 629 410 639 q 565 836 474 692 q 614 913 600 892 q 701 1058 686 1026 q 722 1093 701 1093 q 755 1076 736 1093 q 784 1050 774 1058 q 794 1032 794 1042 q 786 1008 794 1022 q 443 519 682 772 q 440 513 440 517 q 488 492 440 492 q 594 388 556 474 q 623 320 600 376 q 660 235 646 264 q 694 201 674 201 q 714 208 703 201 q 729 215 725 215 q 750 163 750 215 q 743 92 750 111 q 701 47 736 74 q 642 21 665 21 q 579 69 619 21 q 499 236 539 117 q 446 382 458 356 q 409 418 431 418 q 373 394 388 418 q 336 371 358 369 q 315 215 315 274 q 319 131 315 156 q 324 92 324 106 q 304 60 324 78 q 266 42 285 42 q 219 72 247 42 q 200 104 201 90 q 194 174 197 131 q 192 249 192 217 q 216 463 192 356 q 285 704 240 569 q 350 929 350 901 q 325 957 350 957 q 292 936 294 957 z "},"L":{"ha":550,"x_min":-83,"x_max":535,"o":"m 314 1038 q 318 1043 314 1043 q 343 1029 322 1043 q 392 997 364 1015 q 429 942 421 979 q 438 831 438 904 q 394 704 438 758 q 371 685 379 685 q 351 717 354 685 q 333 749 347 749 q 322 728 324 749 q 318 604 318 694 q 238 218 307 367 q 310 211 276 211 q 504 283 442 211 q 526 300 517 300 q 535 275 535 300 q 521 144 535 204 q 406 57 500 57 q 181 125 311 57 q 90 58 132 58 q -18 124 47 58 q -83 231 -83 190 q -59 265 -83 253 q -7 278 -35 278 q 115 247 21 278 q 172 443 161 333 q 214 763 183 553 q 250 1016 244 974 q 268 1058 256 1058 q 319 994 281 1058 l 319 1003 l 314 1038 m 46 196 q 42 181 42 196 q 53 167 42 167 q 71 185 58 167 l 46 196 z "},"M":{"ha":993,"x_min":14,"x_max":993,"o":"m 986 517 q 993 501 993 517 q 992 471 993 486 q 860 85 969 207 q 742 42 824 44 q 642 218 642 78 q 647 281 642 243 q 740 819 653 319 q 583 217 618 572 q 576 154 579 175 q 539 110 571 110 q 447 175 496 110 q 431 231 431 197 q 433 304 431 264 q 440 393 435 344 q 449 471 446 442 q 462 560 451 500 q 475 637 472 619 q 491 725 478 654 q 506 804 504 796 q 469 742 485 783 q 443 674 453 700 q 424 613 433 649 q 407 550 414 576 q 391 486 400 524 q 378 429 382 449 q 346 294 368 393 q 317 170 324 196 q 308 128 311 144 q 302 106 304 113 q 294 89 300 100 q 259 69 283 69 q 217 87 235 69 q 194 117 200 104 q 180 155 189 131 q 171 193 171 179 q 179 242 171 207 q 199 328 188 276 q 215 394 211 379 q 228 456 218 408 q 243 522 239 503 q 256 584 247 542 q 268 651 264 626 q 279 713 272 675 q 290 781 286 751 q 307 908 304 872 l 307 918 q 296 943 307 943 q 260 904 285 943 q 225 844 235 865 q 211 788 215 824 q 111 474 192 594 q 81 460 101 460 q 37 482 60 460 q 14 528 14 504 q 110 856 14 669 q 171 1065 147 926 q 217 992 208 1010 q 238 974 226 974 q 263 990 243 974 q 320 1007 282 1007 q 382 988 358 1007 q 412 943 406 968 q 421 868 418 918 q 450 894 429 875 q 528 933 494 933 q 590 897 563 933 q 614 821 617 860 q 675 917 631 840 q 760 967 707 967 q 847 888 847 967 q 814 688 847 851 q 765 417 781 524 q 750 217 750 311 l 750 190 q 840 288 796 229 q 904 383 883 347 q 969 497 925 418 q 986 517 982 517 z "},"N":{"ha":835,"x_min":14,"x_max":821,"o":"m 431 75 q 408 24 431 46 q 354 3 385 3 q 291 44 324 3 q 258 114 258 85 q 276 185 258 149 q 286 282 278 194 q 330 577 294 369 q 375 860 365 785 l 375 874 q 351 907 375 907 q 301 882 326 907 q 304 860 304 876 q 267 753 304 843 q 160 482 229 664 q 104 432 139 432 q 42 474 69 432 q 14 545 14 515 q 24 601 14 575 q 103 767 58 685 q 173 899 147 850 q 212 969 199 947 q 239 992 225 992 q 264 989 253 992 q 335 1021 290 1021 q 424 993 379 1021 q 469 854 469 965 q 463 742 469 815 q 454 650 456 669 q 654 1051 567 971 q 697 1067 669 1067 q 776 1042 760 1067 q 792 953 792 1018 q 779 814 792 889 q 740 624 767 739 q 706 473 714 510 q 699 401 699 436 q 703 367 699 367 q 759 441 714 367 q 813 515 804 515 q 821 489 821 515 q 799 292 821 396 q 738 133 778 188 q 667 79 699 79 q 632 95 653 79 q 607 115 611 111 q 561 261 561 165 q 647 764 561 346 q 683 949 674 897 q 522 578 579 774 q 432 135 464 383 l 428 100 l 431 75 z "},"O":{"ha":593,"x_min":42,"x_max":593,"o":"m 593 622 q 510 432 593 510 q 378 110 456 229 q 271 42 332 42 q 196 67 239 42 q 61 231 81 138 q 42 425 42 324 q 175 967 42 689 q 210 999 192 999 q 275 974 213 999 q 417 1054 310 1054 q 499 1033 472 1054 q 558 794 558 986 q 549 646 558 731 l 582 713 q 593 622 593 665 m 446 894 q 435 940 446 918 q 407 963 425 963 q 376 947 389 963 q 346 904 363 932 q 267 594 267 776 q 292 499 267 549 q 360 450 318 450 q 378 453 367 450 q 446 894 446 657 m 353 386 q 274 426 310 397 q 221 493 238 454 q 190 636 190 574 q 199 740 190 699 q 139 462 139 617 q 174 193 139 307 q 213 151 186 151 q 246 176 231 151 q 353 386 306 260 z "},"P":{"ha":578,"x_min":-14,"x_max":592,"o":"m 107 404 q 174 890 107 668 q 128 847 146 871 q 37 788 82 788 q -8 847 -8 788 q 56 976 -8 942 q 185 1034 111 1008 q 314 1060 260 1060 q 514 964 436 1060 q 592 744 592 868 q 565 586 592 668 q 406 421 524 461 q 288 399 342 399 q 206 425 233 399 l 206 365 q 218 149 206 257 l 219 128 q 176 60 219 82 q 121 43 146 43 q 68 89 96 43 q -10 299 22 163 q -14 328 -14 317 q -3 340 -14 340 q 51 292 7 340 q 103 243 94 243 q 111 268 111 243 l 107 404 m 518 792 q 463 911 518 872 q 321 950 407 950 q 238 929 269 950 q 244 880 244 899 q 242 835 244 861 q 232 746 239 808 q 222 651 225 683 q 339 696 260 696 q 360 690 360 696 q 346 683 360 683 q 251 626 251 683 q 303 560 251 560 q 329 563 313 560 q 518 792 518 603 z "},"Q":{"ha":581,"x_min":42,"x_max":553,"o":"m 533 151 q 553 103 553 151 q 525 26 553 56 q 451 -3 497 -3 q 321 61 382 -3 q 253 24 290 24 q 172 57 215 24 q 156 69 169 60 q 136 82 142 78 q 121 94 131 86 q 94 129 103 110 q 42 392 42 236 q 142 888 42 610 q 160 911 151 911 q 181 899 168 911 q 201 941 185 907 q 227 991 218 975 q 255 1035 236 1007 q 290 1076 274 1063 q 372 1113 333 1113 q 439 1097 411 1113 q 524 996 507 1058 q 546 759 546 903 q 501 439 546 615 q 372 131 456 263 q 444 90 415 90 q 497 121 472 90 q 533 151 521 151 m 431 915 q 416 988 431 951 q 374 1024 401 1024 q 325 997 346 1024 q 192 578 192 838 q 194 497 192 525 q 214 432 197 469 q 265 374 231 394 q 272 365 272 369 q 258 353 272 353 q 233 357 244 353 q 146 460 181 379 q 139 363 139 407 q 215 121 139 174 q 258 188 239 150 q 250 243 250 226 q 253 260 250 260 q 279 231 257 260 q 386 568 342 368 q 431 915 431 768 z "},"R":{"ha":639,"x_min":-14,"x_max":639,"o":"m 44 1004 q 88 1013 60 1004 q 322 1060 238 1060 q 474 1034 406 1060 q 590 953 542 1008 q 639 833 639 897 q 613 719 639 769 q 542 628 588 668 q 354 507 461 560 q 446 336 446 458 l 444 276 q 494 181 444 181 q 600 225 546 181 q 622 239 618 239 q 633 222 633 239 q 572 93 633 174 q 490 50 536 50 q 387 118 428 50 q 346 253 346 186 l 349 326 q 319 444 349 419 q 279 469 304 457 l 235 449 q 217 232 217 314 l 218 111 q 189 60 218 60 q 156 72 178 60 q 36 272 67 128 q 35 283 35 279 q 55 296 35 296 q 90 284 75 296 q 111 260 104 272 q 122 249 118 249 q 135 272 135 249 l 129 338 q 164 783 133 553 q 178 861 174 844 q 182 885 182 878 q 181 897 182 893 q 105 860 126 882 q 67 839 83 839 q 42 842 51 839 q 26 853 33 844 q 14 867 18 863 q -14 938 -14 907 q 11 1010 -14 1010 l 44 1004 m 528 856 q 466 906 528 890 q 358 922 404 922 q 276 917 311 922 q 272 822 272 900 q 256 603 272 743 q 519 828 422 665 q 528 856 528 844 z "},"S":{"ha":582,"x_min":-35,"x_max":617,"o":"m 556 1028 q 617 942 617 956 q 603 911 617 928 q 450 763 538 838 q 421 746 431 746 q 407 767 407 746 q 426 825 407 789 q 444 867 444 861 q 440 872 444 872 q 426 869 435 872 q 204 690 267 813 q 190 644 190 663 q 246 576 190 608 q 321 536 254 571 q 490 419 456 464 q 546 283 546 350 q 531 228 546 257 q 494 186 517 200 q 76 40 260 40 q -21 129 -21 40 q -1 185 -21 158 q -35 235 -35 208 q 3 290 -35 263 q 289 357 92 357 q 339 342 310 357 q 386 311 368 328 q 421 346 421 331 q 403 376 421 361 q 305 428 376 396 q 214 471 233 460 q 124 567 156 504 q 93 699 93 629 q 128 827 93 769 q 228 928 164 885 q 471 1047 325 993 q 501 1053 490 1053 q 556 1028 533 1053 m 292 258 q 260 261 278 261 q 190 244 242 261 q 138 207 138 228 q 147 199 138 199 q 292 258 185 199 z "},"T":{"ha":529,"x_min":-83,"x_max":765,"o":"m 240 363 q 324 856 240 624 q 251 863 264 863 q 160 841 196 863 q 89 790 125 819 q -21 746 36 746 q -57 756 -44 746 q -72 778 -69 767 q -76 811 -75 789 q -81 846 -78 833 q -83 871 -83 858 q -62 901 -83 883 q 294 1007 57 1007 q 386 1003 340 1007 l 397 1028 q 415 1001 404 1018 l 442 1001 q 728 1054 572 1001 q 743 1057 739 1057 q 765 1033 765 1057 q 740 985 765 1010 q 411 851 617 849 q 364 522 376 717 q 349 301 351 328 q 346 256 346 275 q 358 179 346 236 q 371 114 371 122 q 329 74 371 74 q 196 215 265 74 q 182 263 182 240 q 193 286 182 286 q 220 264 204 286 q 240 242 236 242 q 244 253 244 242 l 240 363 z "},"U":{"ha":782,"x_min":0,"x_max":782,"o":"m 675 969 q 597 478 597 732 q 636 224 597 224 q 651 231 644 224 q 740 419 732 314 q 747 447 740 447 q 768 424 754 447 q 782 342 782 401 q 734 188 782 282 q 626 93 686 93 q 565 119 593 93 q 528 188 538 146 q 510 287 518 231 q 496 413 503 343 q 483 519 489 482 q 447 368 474 482 q 406 199 421 254 q 288 71 368 71 q 219 94 249 71 q 183 154 190 117 q 167 341 167 232 q 192 567 167 450 q 245 769 218 683 q 272 869 272 854 q 265 885 272 885 q 243 868 258 885 q 208 820 228 851 q 177 767 188 789 q 147 701 167 746 q 119 640 128 657 q 69 600 100 600 q 19 638 38 600 q 0 707 0 675 q 24 765 0 739 q 208 1033 113 865 l 228 1018 q 267 1028 260 1028 q 285 1024 275 1028 q 319 1014 294 1021 q 353 1003 344 1007 q 379 991 363 1000 q 401 972 396 982 q 418 903 418 940 q 410 831 418 865 q 346 598 401 797 q 278 290 290 399 l 278 278 q 286 254 278 254 q 303 276 294 254 q 524 888 406 526 q 532 929 532 915 l 522 971 q 538 994 522 986 q 599 1026 560 1010 q 661 1043 639 1043 q 683 1020 683 1043 q 675 969 683 997 z "},"V":{"ha":665,"x_min":0,"x_max":651,"o":"m 332 331 q 356 201 332 201 q 381 224 365 201 q 432 324 403 261 q 557 872 557 589 q 551 995 557 942 q 546 1054 546 1049 q 585 1106 546 1106 q 622 1061 610 1106 q 651 811 651 950 q 454 126 651 472 q 360 56 413 56 q 299 83 329 56 q 211 328 211 164 q 331 889 211 589 q 336 911 336 903 q 319 932 336 932 q 296 922 311 932 q 272 898 281 911 q 253 867 263 885 q 238 840 243 849 q 113 706 158 732 q 70 694 92 694 q 24 719 49 694 q 0 764 0 744 q 8 806 0 783 q 243 1031 60 918 q 324 1051 276 1051 q 408 1012 371 1051 q 446 914 446 972 q 439 858 446 881 q 420 794 432 835 q 405 742 408 754 q 391 692 401 729 q 377 640 381 656 q 365 592 374 625 q 353 539 357 558 q 345 489 350 519 q 339 436 340 458 q 332 331 332 367 z "},"W":{"ha":849,"x_min":0,"x_max":814,"o":"m 701 1044 q 814 610 814 842 q 686 160 814 378 q 561 83 642 83 q 440 185 474 83 q 416 285 425 231 q 404 354 407 340 q 365 262 393 332 q 317 156 336 192 q 233 97 288 97 q 161 128 193 97 q 128 236 135 156 q 124 285 126 263 q 122 326 122 307 q 126 374 122 346 q 135 426 131 401 q 151 486 140 451 q 171 545 163 521 q 195 608 179 569 q 219 667 211 647 q 247 728 228 688 q 272 783 265 768 q 318 882 290 826 q 125 750 228 786 q 66 740 96 740 q 18 764 36 740 q 0 831 0 788 q 53 924 0 874 q 174 1003 107 974 q 294 1032 240 1032 q 394 997 347 1032 q 440 906 440 963 q 424 842 440 885 q 363 686 408 799 q 229 294 263 438 q 226 273 226 283 q 236 263 226 263 q 403 639 278 263 q 393 664 393 651 q 426 682 393 682 q 518 679 494 682 q 542 664 542 676 q 532 644 542 651 q 517 426 517 482 q 528 283 517 371 q 563 196 539 196 q 604 247 583 196 q 697 648 697 451 q 594 1011 697 844 q 579 1054 579 1033 q 628 1088 579 1088 q 701 1044 676 1088 m 229 965 q 90 904 136 950 q 75 876 75 889 q 92 864 75 864 q 229 965 138 864 z "},"X":{"ha":657,"x_min":0,"x_max":657,"o":"m 633 1010 q 657 959 657 989 q 632 857 657 929 q 585 785 607 785 q 560 894 568 785 q 403 615 478 774 q 425 313 403 400 q 488 181 446 235 q 592 318 528 207 q 615 343 607 343 q 633 267 633 343 q 589 103 633 192 q 515 56 565 56 q 468 65 503 56 q 399 107 433 74 q 344 189 365 140 q 299 375 313 267 q 201 141 232 211 q 142 71 171 71 q 101 85 126 71 q 46 148 60 107 q 32 250 32 189 q 47 271 32 271 q 83 250 61 271 l 104 228 q 117 246 111 228 q 281 597 251 540 q 272 790 281 697 q 231 943 257 943 q 208 917 222 943 q 165 826 194 892 q 115 724 135 761 q 69 688 94 688 q 22 714 43 688 q 0 772 0 740 q 42 887 0 804 q 115 1004 85 969 q 125 1072 119 1029 q 143 1029 135 1067 q 210 1053 175 1053 q 281 1039 246 1053 q 394 892 389 999 q 397 815 397 842 q 538 1040 479 956 q 570 1067 557 1067 q 594 1056 583 1067 q 617 1030 606 1046 q 633 1010 628 1014 z "},"Y":{"ha":718,"x_min":0,"x_max":815,"o":"m 725 1079 q 815 1049 815 1079 q 803 1014 815 1036 q 588 347 632 715 q 572 181 572 228 q 589 157 572 157 q 599 171 594 157 q 607 185 603 185 q 634 153 617 185 q 651 107 651 122 q 586 -76 651 67 q 535 -131 563 -131 q 518 -125 529 -131 q 460 62 460 -90 q 501 472 460 214 q 463 419 490 458 q 416 356 435 379 q 368 306 397 333 q 249 249 311 249 q 144 293 186 249 q 106 360 132 307 q 81 476 81 414 q 109 606 81 538 q 167 726 138 674 q 217 811 196 778 q 338 988 256 868 q 346 1010 346 1001 q 313 1029 346 1029 q 253 1017 281 1029 q 221 999 225 1004 q 214 979 217 993 l 215 961 q 191 905 215 929 q 139 860 167 881 q 76 840 111 840 q 28 847 42 840 q 8 867 15 853 q 0 928 0 886 q 32 992 0 969 q 71 1017 36 994 q 116 1047 106 1040 q 158 1072 126 1054 q 207 1094 189 1089 q 313 1115 265 1115 q 404 1080 361 1115 q 447 986 447 1044 q 423 894 447 949 q 327 733 399 839 q 235 592 256 626 q 181 439 181 493 q 206 385 181 385 q 274 424 229 385 q 342 490 318 464 q 398 563 365 517 q 445 632 431 608 q 492 708 460 656 q 542 790 524 761 q 665 1008 618 919 q 663 1032 663 1022 q 725 1079 663 1079 z "},"Z":{"ha":606,"x_min":14,"x_max":647,"o":"m 446 1003 q 639 882 592 1003 q 647 835 647 858 q 589 709 647 769 q 422 556 531 649 q 268 419 313 463 q 164 256 164 319 q 215 217 164 217 q 543 254 318 217 l 556 256 q 574 238 574 256 q 565 197 574 219 q 294 78 529 78 q 163 97 214 78 q 83 181 111 117 q 67 257 67 217 q 135 419 67 338 q 332 637 204 501 q 496 815 460 772 q 532 868 532 857 q 433 892 532 892 q 285 883 382 892 q 81 836 206 836 q 30 847 46 836 q 14 896 14 857 q 24 960 14 935 q 77 1003 35 985 q 213 1056 119 1022 q 326 1089 307 1089 q 353 1078 346 1089 q 369 1044 361 1068 l 379 1021 q 406 1001 388 1001 l 446 1003 z "},"a":{"ha":581,"x_min":14,"x_max":588,"o":"m 329 253 q 156 49 215 49 q 78 101 113 49 q 57 145 68 115 q 30 200 46 175 q 14 267 14 225 q 31 343 14 310 q 271 651 144 568 q 310 664 288 664 q 365 639 332 664 q 389 606 385 619 q 396 568 396 575 q 444 507 444 551 q 428 369 444 476 q 408 208 411 261 q 428 179 408 179 q 508 257 450 179 q 574 335 565 335 q 588 289 588 335 l 585 221 q 550 115 585 182 q 461 47 515 47 q 408 69 428 47 q 388 97 401 76 q 329 253 344 160 m 342 574 q 119 208 167 414 q 342 574 260 329 z "},"b":{"ha":461,"x_min":14,"x_max":436,"o":"m 215 219 q 282 265 263 219 q 314 360 294 293 q 333 449 333 428 q 303 488 333 488 q 293 486 299 488 q 186 411 215 468 q 144 242 144 333 q 155 146 144 197 q 165 81 165 94 q 133 25 165 25 q 50 164 99 25 q 22 242 29 224 q 14 282 14 260 q 68 425 14 325 q 171 1082 96 788 q 192 1110 179 1110 q 215 1086 207 1110 q 222 1048 222 1063 q 209 923 222 1033 q 181 578 196 813 q 310 644 254 644 q 370 617 344 644 q 410 550 396 590 q 436 400 436 471 q 310 49 436 218 q 258 15 285 15 q 192 89 224 15 q 160 206 160 163 q 175 226 160 226 l 215 219 z "},"c":{"ha":385,"x_min":21,"x_max":374,"o":"m 374 294 q 317 122 374 206 q 172 39 260 39 q 62 123 103 39 q 21 301 21 207 q 72 506 21 394 q 204 683 122 617 q 250 700 222 700 q 315 668 278 700 q 335 593 335 650 q 301 415 335 536 q 279 385 293 385 q 239 533 253 385 q 236 563 238 557 q 130 392 168 488 q 92 208 92 297 q 122 163 92 163 q 289 257 175 163 q 319 284 310 275 q 349 310 329 293 q 371 331 368 328 q 374 294 374 318 z "},"d":{"ha":533,"x_min":21,"x_max":540,"o":"m 535 194 q 494 118 535 118 q 439 151 463 118 q 403 212 415 185 q 378 263 390 239 q 356 321 365 288 q 347 292 354 317 l 336 254 q 310 173 319 193 q 291 128 301 153 q 269 90 281 104 q 246 61 258 75 q 185 32 221 32 q 117 72 150 32 q 33 239 60 139 q 21 335 21 281 q 54 455 21 389 q 154 600 88 521 q 278 679 221 679 q 347 650 308 679 q 375 863 356 725 q 399 1042 394 1000 q 428 1085 403 1085 q 466 1058 454 1085 q 478 1004 478 1031 q 474 956 478 978 q 435 310 435 558 q 456 272 435 272 q 501 305 476 272 q 533 338 525 338 q 540 326 540 338 l 531 267 l 535 194 m 311 532 q 295 549 311 549 q 257 535 279 549 q 138 410 185 494 q 92 240 92 325 q 124 189 92 189 q 151 204 136 189 q 306 507 229 286 q 311 532 311 521 z "},"e":{"ha":468,"x_min":14,"x_max":440,"o":"m 440 253 q 226 42 440 42 q 97 88 138 42 q 25 228 56 133 q 14 305 14 264 q 51 415 14 346 q 132 535 88 483 q 167 611 138 611 q 188 593 182 611 q 258 644 217 619 q 333 669 300 669 q 402 631 367 669 q 438 551 438 592 q 381 439 438 510 q 213 306 274 306 q 143 379 168 306 q 130 356 142 376 q 113 326 118 336 q 100 300 108 317 q 86 243 86 268 q 143 186 86 186 q 303 226 238 186 q 435 346 369 265 q 440 253 440 285 m 214 421 q 280 475 236 421 q 324 549 324 529 q 309 569 324 569 q 259 533 294 569 q 203 471 224 497 q 200 446 200 454 q 214 421 200 421 z "},"f":{"ha":510,"x_min":14,"x_max":524,"o":"m 74 633 q 86 611 74 611 q 99 618 92 611 q 203 793 147 667 q 315 1025 258 919 q 357 1057 331 1057 q 398 1038 383 1057 q 413 994 413 1018 q 399 951 413 969 q 224 532 314 824 q 350 615 283 554 q 408 638 376 638 q 481 612 439 638 q 524 555 524 586 q 469 485 524 524 q 364 422 414 446 q 451 271 424 343 q 478 107 478 199 q 289 -421 478 -135 q 245 -457 269 -449 q 188 -465 221 -465 q 144 -457 156 -465 q 122 -432 132 -449 q 91 -385 111 -415 q 61 -336 71 -354 q 14 -108 14 -243 q 28 114 14 6 q 69 399 47 250 q 49 451 49 424 q 71 493 49 478 q 33 591 38 568 q 28 636 28 614 q 54 711 28 711 q 71 698 64 711 q 78 674 78 685 l 74 633 m 181 -325 q 317 -86 264 -236 q 371 198 371 64 q 267 386 371 332 q 179 369 222 375 q 117 -242 117 97 q 151 -344 117 -344 q 181 -325 164 -344 z "},"g":{"ha":482,"x_min":14,"x_max":454,"o":"m 189 -129 q 197 -115 189 -118 q 211 -108 206 -111 q 225 -97 217 -104 q 258 -83 244 -83 q 280 -87 271 -83 q 292 -92 289 -92 q 307 -35 307 -92 q 333 283 314 100 q 228 148 293 219 q 124 76 163 76 q 60 111 85 76 q 14 261 14 176 q 146 533 14 386 q 215 605 192 583 q 286 672 238 626 q 374 717 335 717 q 433 689 413 717 q 454 626 454 661 q 438 529 454 590 q 449 509 449 522 q 446 482 449 496 q 376 -32 383 90 q 368 -225 368 -154 l 369 -299 q 360 -328 369 -317 q 335 -340 350 -340 q 284 -313 319 -340 q 217 -286 249 -286 l 185 -289 q 168 -274 168 -289 l 186 -144 l 189 -129 m 351 515 q 358 547 358 532 q 347 563 358 563 q 338 560 343 563 q 193 453 256 519 q 100 304 131 386 q 94 275 94 288 q 115 247 94 247 q 140 256 126 247 q 261 369 204 299 q 351 515 318 440 z "},"h":{"ha":482,"x_min":28,"x_max":472,"o":"m 472 264 q 432 96 472 154 q 379 57 401 57 q 335 79 357 57 q 257 296 257 169 q 267 382 257 338 q 283 481 283 458 q 281 503 283 503 q 171 121 272 503 q 144 82 158 82 q 56 211 107 82 q 28 358 28 272 q 40 522 28 456 q 54 605 51 589 q 65 656 57 621 q 75 703 72 692 q 97 801 92 772 q 63 822 63 801 q 71 843 63 832 q 179 1057 147 964 q 201 1081 185 1081 q 235 1038 224 1081 q 246 963 246 994 q 193 833 246 882 q 131 426 131 446 q 136 407 131 407 q 156 433 142 407 q 203 531 171 458 q 256 639 235 604 q 333 690 286 690 q 408 550 408 690 q 356 263 408 436 q 354 251 354 257 q 369 236 354 236 q 420 276 383 236 q 465 317 457 317 q 472 264 472 317 z "},"i":{"ha":333,"x_min":19,"x_max":333,"o":"m 285 1025 q 246 898 285 979 q 172 781 207 817 q 156 772 167 772 q 121 828 121 772 q 169 983 121 883 q 182 1026 179 1004 q 185 1052 185 1049 q 187 1058 186 1056 q 188 1063 188 1060 q 190 1069 189 1067 q 192 1073 190 1071 q 194 1076 193 1075 q 217 1079 199 1079 q 260 1064 235 1079 q 285 1025 285 1049 m 299 408 q 320 432 314 432 q 330 397 326 432 q 333 305 333 363 q 306 181 333 247 q 228 75 279 115 q 174 53 199 53 q 134 63 150 53 q 106 97 118 74 q 65 183 85 131 q 44 297 44 236 q 54 421 44 358 q 64 505 64 483 q 42 560 64 526 q 19 601 19 594 q 24 616 19 608 q 37 631 29 624 q 52 644 44 639 q 69 658 60 650 q 128 685 101 685 q 174 667 154 685 q 194 604 194 649 q 172 436 193 560 q 146 254 146 278 q 158 231 146 231 q 299 408 186 231 z "},"j":{"ha":256,"x_min":-333,"x_max":275,"o":"m 174 1025 q 205 1047 178 1047 q 253 1022 232 1047 q 275 964 275 996 q 253 872 275 932 q 207 813 232 813 q 175 859 188 813 q 163 936 163 906 q 174 1025 163 967 m 213 175 q 226 160 226 175 q 221 123 226 144 q 207 75 215 101 q 196 39 199 49 q 128 -33 183 -12 q -6 -461 74 -292 q -101 -532 -37 -532 q -183 -492 -147 -532 q -322 -221 -262 -408 q -333 -160 -333 -185 q -317 -118 -333 -136 q 56 118 -197 13 q 139 690 115 367 q 158 719 142 719 q 201 692 183 719 q 218 641 218 665 q 217 606 218 617 q 163 160 193 346 q 213 175 208 175 m 4 -72 q -142 -156 -57 -96 q -226 -244 -226 -215 q -190 -285 -226 -264 q -129 -306 -153 -306 q -86 -275 -106 -306 q 4 -72 -36 -200 z "},"k":{"ha":475,"x_min":26,"x_max":461,"o":"m 419 192 q 444 143 447 192 q 447 119 444 128 q 450 104 450 111 q 420 71 450 82 q 354 60 390 60 q 278 102 318 60 q 138 294 239 144 l 138 260 q 144 157 138 192 q 150 114 150 122 q 97 68 150 68 q 59 90 69 68 q 38 157 49 111 q 26 222 26 203 q 33 278 26 242 q 41 337 39 315 q 47 410 43 358 q 133 1113 67 715 q 128 1152 128 1135 q 142 1169 128 1169 q 172 1150 156 1169 q 210 1081 196 1126 q 224 1007 224 1035 q 217 940 224 979 q 197 822 211 900 q 156 560 167 651 q 175 578 158 563 q 196 599 192 594 q 215 616 200 603 q 238 633 231 629 q 260 647 246 638 q 286 658 275 656 q 339 668 313 668 q 431 624 400 668 q 461 514 461 579 q 449 447 461 469 q 429 412 436 424 q 406 386 422 400 l 381 365 q 311 325 363 350 q 252 295 260 300 q 244 285 244 290 q 251 274 244 281 q 404 193 321 204 l 419 192 m 356 551 q 204 435 275 515 q 356 551 286 460 z "},"l":{"ha":335,"x_min":39,"x_max":335,"o":"m 121 1090 q 139 1107 121 1107 q 157 1104 146 1107 q 240 1008 240 1088 q 236 966 240 989 q 220 871 232 943 q 203 767 208 799 l 189 671 q 156 267 156 451 q 175 226 156 226 q 190 235 182 226 q 303 384 288 357 q 327 411 319 411 q 335 392 335 411 q 327 322 335 374 q 318 255 319 269 q 312 222 317 240 q 303 194 307 204 q 289 165 300 183 q 274 140 278 146 q 227 80 244 101 q 187 58 210 58 q 143 79 164 58 q 113 117 122 100 q 88 168 104 133 q 39 367 39 263 q 59 585 39 456 q 83 746 79 714 q 51 774 51 746 q 55 795 51 785 q 81 872 58 806 q 128 1049 128 1007 l 121 1090 z "},"m":{"ha":717,"x_min":31,"x_max":717,"o":"m 482 539 q 479 556 482 556 q 467 533 474 556 q 350 135 442 469 q 321 86 336 86 q 296 97 314 86 q 225 224 225 149 q 244 386 225 283 q 267 524 267 514 q 263 535 267 535 q 253 521 260 535 q 167 117 182 351 q 139 75 164 75 q 79 114 106 75 q 31 269 31 183 q 44 407 31 324 q 60 508 57 490 q 103 654 83 654 q 126 615 118 654 q 135 557 135 575 q 140 539 135 539 q 171 572 156 539 q 208 637 186 604 q 263 669 231 669 q 324 645 296 669 q 358 586 351 621 q 414 651 375 610 q 456 681 435 681 q 519 660 478 681 q 576 507 576 631 q 568 294 576 383 l 568 285 q 576 264 568 264 q 638 334 589 264 q 697 404 686 404 q 717 305 717 404 q 646 107 717 206 q 589 61 613 61 l 574 65 q 494 132 518 94 q 471 251 471 169 l 482 539 z "},"n":{"ha":488,"x_min":33,"x_max":488,"o":"m 488 378 q 481 260 488 310 q 431 126 474 210 q 346 42 388 42 q 311 61 328 42 q 229 249 229 160 q 247 369 229 275 q 272 527 272 511 q 267 543 272 543 q 257 532 263 543 q 199 387 221 468 q 169 250 176 306 q 154 94 163 194 q 136 60 154 60 q 108 75 128 60 q 33 250 33 139 q 42 381 33 297 q 53 496 51 464 q 90 689 68 689 q 108 662 103 689 q 114 601 114 635 q 116 539 114 567 q 126 511 118 511 q 150 556 135 511 q 195 645 165 600 q 260 690 225 690 q 321 675 294 690 q 381 547 381 644 q 372 465 381 514 q 358 359 364 417 q 351 294 351 301 q 357 286 351 286 q 413 342 368 286 q 475 397 458 397 q 488 378 488 397 z "},"o":{"ha":382,"x_min":25,"x_max":357,"o":"m 357 397 q 260 99 357 229 q 183 54 225 54 q 115 75 140 54 q 25 332 25 150 q 93 654 25 458 q 103 672 99 668 q 117 675 107 675 q 143 690 128 675 q 194 704 158 704 q 265 678 229 704 q 318 607 301 651 q 357 397 357 503 m 242 488 q 210 615 242 615 q 182 592 194 615 q 126 276 126 460 q 128 207 126 231 q 242 488 242 294 z "},"p":{"ha":460,"x_min":21,"x_max":439,"o":"m 64 431 q 42 491 64 467 q 21 522 21 515 q 30 533 21 529 q 50 540 39 538 q 72 556 61 542 q 90 618 83 571 q 97 685 97 665 q 110 706 97 706 q 132 697 122 706 q 147 681 142 689 q 158 658 151 674 q 168 639 165 643 q 244 654 214 654 q 381 577 324 654 q 439 419 439 500 q 432 353 439 390 q 299 97 389 167 q 243 72 268 72 q 201 92 218 72 q 178 144 185 113 q 165 276 165 201 q 182 351 165 351 q 197 315 185 351 q 233 279 208 279 q 271 304 258 279 q 314 402 293 343 q 335 494 335 461 q 304 526 335 526 q 264 517 286 526 q 150 360 178 482 q 101 -18 101 143 q 110 -144 101 -94 l 114 -176 q 100 -208 114 -193 q 69 -224 86 -224 q 25 -15 25 -224 q 63 407 25 115 l 64 431 z "},"q":{"ha":468,"x_min":25,"x_max":447,"o":"m 240 681 q 318 706 275 706 q 388 679 361 706 q 418 626 415 653 q 434 572 421 599 q 447 532 447 544 q 440 474 447 519 q 304 -186 418 375 q 359 -151 329 -182 q 397 -121 389 -121 q 404 -172 404 -121 q 378 -290 404 -224 q 301 -357 351 -357 q 224 -261 235 -357 q 217 -131 217 -215 q 264 208 217 -46 q 197 121 217 142 q 149 94 178 94 q 92 117 121 94 q 25 296 25 169 q 83 519 25 422 q 240 681 140 615 m 328 538 q 333 563 333 551 q 322 574 333 574 q 314 571 319 574 q 125 286 158 494 q 124 263 124 276 q 131 250 124 250 q 151 263 139 250 q 328 538 254 353 z "},"r":{"ha":426,"x_min":0,"x_max":453,"o":"m 443 382 q 453 324 453 382 q 414 208 453 267 q 360 131 397 175 q 311 78 324 88 q 251 51 274 51 q 217 54 228 51 q 195 66 206 57 q 178 80 185 75 q 163 99 172 85 q 151 118 154 114 q 139 140 149 122 q 129 160 129 158 q 103 252 103 208 q 110 334 103 296 q 135 428 118 372 q 156 499 151 483 q 100 442 135 472 q 70 431 86 431 q 44 445 54 431 q 17 508 33 460 q 0 574 0 557 q 22 628 0 592 q 49 678 44 665 q 69 703 56 703 q 103 688 76 703 q 138 632 129 674 q 150 615 140 615 q 174 631 154 615 q 219 646 194 646 q 292 601 243 646 q 308 554 308 585 q 305 511 308 524 q 297 494 301 499 q 278 467 285 485 q 241 337 272 450 q 210 213 210 224 q 218 201 210 201 q 307 268 229 201 q 419 367 385 335 q 443 382 440 382 z "},"s":{"ha":447,"x_min":21,"x_max":447,"o":"m 254 685 q 311 694 275 694 q 397 666 347 694 q 447 599 447 638 q 417 531 447 561 q 350 500 388 500 q 271 553 293 500 q 262 561 268 561 q 216 544 256 561 q 163 521 176 528 q 149 508 149 514 q 168 492 149 501 q 415 288 415 425 q 377 187 415 239 q 269 101 339 135 q 136 68 200 68 q 47 103 72 68 q 21 203 21 138 q 67 300 21 268 q 167 340 128 340 q 176 335 176 340 q 155 318 176 331 q 109 282 133 306 q 85 244 85 258 q 118 229 85 229 q 293 279 207 229 q 313 302 313 289 q 283 329 313 315 q 185 369 254 343 q 77 415 117 396 q 38 476 38 433 q 44 512 38 489 q 51 543 50 535 q 95 610 58 592 q 254 685 132 628 z "},"t":{"ha":374,"x_min":-49,"x_max":381,"o":"m 338 686 q 381 631 381 686 q 363 589 381 603 q 210 533 318 549 q 196 314 196 401 q 208 226 196 226 q 267 271 217 226 q 322 315 317 315 q 346 244 346 315 q 319 103 346 172 q 244 33 293 33 q 203 48 224 33 q 172 77 182 63 q 142 121 161 92 q 119 156 124 150 q 78 258 82 207 q 75 376 75 308 q 83 524 75 444 q 12 554 40 525 q -33 624 -17 583 q -49 671 -49 665 q -28 689 -49 689 l 106 681 q 128 800 113 724 q 151 929 151 911 l 149 956 q 174 978 149 978 q 235 953 199 978 q 271 906 271 928 q 261 867 271 896 q 228 681 249 822 l 338 686 z "},"u":{"ha":469,"x_min":7,"x_max":469,"o":"m 125 714 q 185 690 157 714 q 202 676 188 688 q 225 658 217 665 q 247 623 247 638 q 222 539 247 608 q 169 392 197 469 q 133 286 133 296 q 140 276 133 276 q 224 408 151 276 q 333 615 296 540 q 372 642 347 642 q 431 593 431 642 q 394 436 431 565 q 349 251 349 265 q 356 236 349 236 q 388 309 364 236 q 421 382 411 382 q 435 369 426 382 q 469 236 469 297 q 426 96 469 175 q 372 58 407 58 q 340 69 350 58 q 307 113 313 101 q 264 232 281 146 q 239 181 254 214 q 181 74 207 107 q 138 50 164 50 q 82 86 113 50 q 35 226 36 149 q 51 372 35 304 q 100 538 67 440 l 104 554 q 94 565 104 565 l 63 557 q 29 585 39 557 q 7 693 7 635 q 21 710 7 710 l 58 701 l 125 714 z "},"v":{"ha":386,"x_min":-14,"x_max":358,"o":"m 97 713 q 194 665 144 713 q 221 617 221 640 q 147 269 221 574 q 144 244 144 256 q 150 233 144 233 q 168 246 156 233 q 231 356 213 301 q 257 435 249 410 q 272 508 265 461 q 282 575 279 556 q 297 717 286 601 q 313 743 301 743 q 329 722 325 743 q 358 400 358 564 q 282 122 358 236 q 193 61 243 61 q 153 72 172 61 q 67 163 99 97 q 35 293 35 228 q 45 376 35 339 q 65 444 56 413 q 81 508 81 494 q 55 532 81 521 q 22 562 29 543 q 0 635 14 581 q -14 700 -14 690 q -4 710 -14 710 l 31 707 l 97 713 z "},"w":{"ha":571,"x_min":-28,"x_max":546,"o":"m 297 518 q 318 518 310 518 q 335 517 326 518 q 347 516 343 517 q 358 513 351 515 q 367 508 364 511 q 372 500 369 504 q 379 482 379 493 q 372 406 379 471 q 365 301 365 340 q 381 190 365 190 q 394 207 386 190 q 436 438 436 292 q 423 608 436 581 q 397 647 410 636 q 374 665 385 657 q 364 678 364 674 q 388 692 364 692 l 408 692 q 460 646 439 690 q 546 299 546 464 q 529 160 546 222 q 418 44 497 44 q 354 69 388 44 q 303 132 321 93 q 275 233 286 171 q 225 122 260 183 q 160 60 190 60 q 138 68 149 60 q 51 293 51 132 q 75 456 51 381 q 107 543 83 479 q 30 508 54 508 q -8 539 6 508 q -28 650 -28 581 q -14 667 -28 667 l 6 664 q 65 686 19 664 q 128 708 111 708 q 192 660 167 708 q 217 581 217 613 q 210 517 217 550 q 176 389 203 485 q 139 235 139 251 q 144 219 139 219 q 160 233 150 219 q 257 485 215 319 q 297 518 265 518 z "},"x":{"ha":410,"x_min":14,"x_max":465,"o":"m 465 685 q 449 635 464 665 q 261 339 372 499 q 343 104 343 140 q 335 77 343 89 q 313 65 326 65 q 290 75 300 65 q 181 224 239 125 q 165 203 178 219 q 150 181 153 186 q 140 161 147 175 q 127 109 131 144 q 108 74 124 74 q 53 113 93 74 q 14 194 14 153 q 101 381 14 257 q 14 612 14 594 q 26 654 14 629 q 54 679 39 679 q 119 603 69 679 q 189 488 169 526 q 331 627 228 529 q 451 725 435 725 q 465 696 465 725 l 465 685 z "},"y":{"ha":526,"x_min":-3,"x_max":501,"o":"m -3 635 q 25 653 -3 656 q 46 653 33 653 q 99 666 58 653 q 163 679 139 679 q 208 660 186 679 q 247 613 229 642 q 265 552 265 583 q 205 387 265 521 q 144 243 144 253 q 156 233 144 233 q 249 314 178 233 q 283 362 264 332 q 311 407 301 392 q 338 460 321 422 q 361 508 356 497 q 407 614 388 564 q 440 638 418 638 q 482 611 463 638 q 501 558 501 585 q 429 172 501 513 q 349 -206 357 -168 q 335 -375 342 -243 q 306 -418 335 -418 q 288 -414 296 -418 q 186 -236 186 -372 l 186 -143 q 204 -114 186 -114 q 240 -137 221 -114 q 260 -164 258 -161 l 335 207 q 236 106 272 132 q 149 81 200 81 q 68 128 99 81 q 38 235 38 175 q 125 526 38 358 q 62 517 86 517 q 26 542 38 517 q 9 590 21 553 q -3 635 -3 626 z "},"z":{"ha":421,"x_min":14,"x_max":421,"o":"m 228 665 q 336 643 299 665 q 407 558 374 621 q 421 509 421 535 q 401 464 421 483 q 258 335 356 415 q 140 238 160 254 l 272 243 q 331 237 314 243 q 353 217 347 231 q 358 174 358 204 q 332 139 358 143 q 163 85 289 131 q 108 75 136 75 q 61 104 81 75 q 21 213 21 176 q 44 279 21 249 q 181 422 88 332 q 288 526 274 511 q 88 497 110 497 q 53 502 65 497 q 33 521 40 507 q 14 596 14 560 q 128 700 14 654 q 146 704 136 704 q 167 682 164 704 q 200 664 171 664 l 228 665 z "},"中":{"ha":1250,"x_min":224,"x_max":1036,"o":"m 586 1069 q 617 1074 604 1078 q 671 1046 631 1069 q 713 1014 703 1025 q 725 983 724 1003 q 714 925 728 956 q 711 899 701 901 q 799 913 721 896 q 872 923 849 922 q 922 915 894 924 q 1018 860 1000 894 q 990 790 1036 826 q 875 694 938 753 q 813 626 813 636 q 850 604 813 615 q 898 578 885 593 q 907 539 911 564 q 896 515 904 519 q 851 507 888 510 q 751 484 800 500 q 688 451 701 468 q 663 256 674 436 q 656 165 658 199 q 648 103 653 132 q 640 63 643 75 q 626 40 636 50 q 607 29 617 31 q 582 28 597 28 q 540 37 546 29 q 550 72 535 44 q 563 122 561 92 q 561 251 565 151 q 560 275 561 258 q 548 390 556 375 q 496 394 540 406 q 486 393 489 393 q 375 440 394 371 q 363 470 369 463 q 343 478 356 478 q 282 536 321 478 q 233 628 243 594 q 226 694 224 660 q 240 733 228 728 q 284 689 251 736 q 360 610 317 642 q 404 558 404 579 q 418 533 404 542 q 450 532 432 525 q 515 579 467 539 q 558 622 550 608 q 565 661 565 636 l 565 700 l 511 694 q 365 726 408 683 q 354 753 347 744 q 401 768 361 763 q 503 801 443 775 q 568 842 564 828 q 587 941 575 858 q 587 1028 599 1024 q 575 1049 575 1032 q 586 1069 575 1067 m 785 814 q 767 818 783 819 q 728 808 751 817 q 692 790 704 800 q 681 758 681 781 q 693 735 681 735 q 744 770 703 735 q 785 814 785 806 z "},"体":{"ha":1250,"x_min":132,"x_max":1092,"o":"m 804 1097 q 829 1169 819 1169 q 858 1149 839 1169 q 926 1107 876 1129 q 976 1070 976 1085 q 905 1002 976 1056 q 833 937 833 949 q 815 869 833 925 q 800 810 796 814 q 864 832 804 806 q 1006 861 932 867 q 1081 815 1081 856 q 1039 743 1081 797 q 973 642 1007 701 q 939 572 939 583 q 1011 550 939 563 q 1092 514 1092 538 q 1008 456 1092 490 q 972 440 982 444 q 946 426 963 436 q 925 413 929 415 q 913 397 921 411 q 904 376 906 382 q 899 347 903 371 q 896 310 896 324 q 894 261 896 297 q 878 68 890 158 q 853 -47 865 -22 q 788 -50 833 -82 q 768 -19 769 -37 q 771 106 767 0 q 753 339 782 338 q 749 338 750 339 q 635 321 663 304 q 622 381 615 335 q 651 431 629 426 q 718 489 668 433 q 761 542 756 529 q 761 585 767 554 q 760 624 758 615 q 782 639 763 632 q 805 647 799 647 q 815 635 811 646 q 918 717 846 582 q 943 785 954 786 q 931 781 939 785 q 863 749 915 771 q 762 688 796 719 q 696 596 728 657 q 533 472 608 424 q 510 485 515 485 q 494 472 504 485 q 482 445 482 454 q 443 350 482 436 q 408 232 404 264 q 406 196 415 201 q 360 206 396 190 q 327 227 338 214 q 303 275 317 240 q 286 327 288 315 q 294 360 285 339 q 310 424 306 379 q 310 506 314 468 q 296 543 306 543 q 249 526 282 543 q 215 504 215 510 q 196 493 215 496 q 168 499 176 490 q 210 654 132 536 q 333 879 263 731 q 399 1006 388 989 q 429 1017 411 1024 q 447 1005 442 1011 q 453 986 453 999 q 449 957 454 974 q 431 907 444 940 q 401 836 418 874 q 353 739 383 799 q 315 642 310 654 q 353 624 319 629 q 398 597 379 618 q 421 544 417 575 q 424 515 424 519 q 442 533 424 508 q 479 600 456 558 q 529 635 526 679 l 529 608 l 565 629 q 641 685 615 658 q 689 760 667 711 q 725 849 718 824 q 724 872 729 869 q 689 869 719 874 q 651 869 661 867 q 631 885 642 871 q 614 931 614 908 q 619 946 614 943 q 642 946 624 949 q 729 983 667 942 l 790 1024 l 804 1097 z "},"字":{"ha":1250,"x_min":186,"x_max":1061,"o":"m 683 797 q 738 768 696 797 q 782 728 779 739 q 777 660 792 699 q 729 583 763 621 q 664 506 685 536 l 643 475 l 686 444 l 729 417 l 803 432 q 901 456 876 446 q 929 461 918 463 q 960 446 940 460 q 1007 428 993 428 q 1040 403 1019 428 q 1061 364 1061 379 q 1013 350 1061 350 q 897 335 965 350 q 810 317 828 321 q 793 299 796 314 q 790 219 790 285 q 786 133 790 153 q 760 79 782 114 q 696 14 729 31 q 655 1 672 1 q 579 13 638 1 q 464 28 496 28 q 376 104 406 28 q 328 154 365 138 q 235 211 285 172 q 189 263 186 250 q 277 298 190 275 q 419 338 364 321 l 476 356 l 476 422 q 481 482 476 471 q 507 504 485 493 q 554 531 539 518 q 612 616 569 546 q 650 690 654 686 q 603 657 643 697 q 510 596 557 611 q 440 603 463 581 q 428 639 419 624 q 476 672 438 654 q 603 746 529 694 q 683 797 676 797 m 667 297 l 619 301 q 519 281 572 303 q 410 242 467 260 q 350 221 369 229 q 326 203 331 213 q 331 185 321 194 q 367 163 342 175 q 449 111 410 140 q 500 85 481 88 q 582 100 519 83 q 658 137 643 115 q 669 229 672 158 l 667 297 m 275 824 q 322 882 315 882 q 315 836 339 882 q 277 749 282 771 q 278 676 272 728 q 281 620 282 635 q 269 599 279 606 q 242 595 253 585 q 225 644 232 606 q 275 824 207 719 m 763 1029 q 869 1063 847 1063 q 928 1040 888 1063 q 983 997 969 1017 q 978 934 1010 964 q 860 883 946 904 q 751 864 775 864 q 738 868 738 864 q 781 913 739 875 q 828 968 833 961 q 740 956 821 983 q 603 889 658 928 q 511 840 542 847 q 461 851 481 832 q 448 873 454 858 q 438 899 442 888 q 439 911 435 911 q 576 960 442 911 q 763 1029 710 1008 m 528 1090 q 525 1103 514 1104 q 581 1071 549 1101 q 613 1031 613 1046 q 589 999 614 1017 q 522 988 551 972 q 525 1025 496 1003 q 538 1058 538 1036 q 528 1090 539 1079 z "},"文":{"ha":1250,"x_min":68,"x_max":1178,"o":"m 821 826 q 888 812 865 822 q 921 781 910 801 q 919 741 935 753 q 858 733 903 729 q 644 694 772 743 q 532 642 532 649 q 581 617 532 635 q 643 574 631 600 q 651 544 654 557 q 622 493 647 532 l 588 435 l 611 410 q 643 386 636 386 q 705 343 650 386 q 769 300 760 300 q 785 288 778 300 q 838 241 793 275 q 907 194 883 207 q 954 168 935 179 q 1059 125 974 157 q 1164 67 1144 93 q 1178 42 1178 47 q 1164 26 1178 38 q 1039 19 1144 13 q 900 42 933 25 q 803 103 854 67 q 732 164 751 140 q 645 245 707 196 q 564 315 583 294 q 508 331 535 344 q 406 236 482 317 q 314 176 368 196 q 236 144 260 157 q 143 103 206 126 q 75 82 81 81 q 96 106 68 85 q 125 126 110 115 q 270 235 196 172 q 374 335 344 297 q 408 415 415 389 q 399 424 406 424 q 371 455 390 424 q 351 497 351 486 q 397 489 351 507 q 461 479 440 474 q 496 515 482 485 q 508 549 508 540 q 494 574 507 557 q 460 601 476 600 q 413 581 444 601 q 346 550 375 556 q 165 600 300 542 q 136 617 136 613 q 146 624 135 621 q 206 632 165 632 q 317 660 235 633 q 469 718 399 686 q 621 772 515 739 q 750 817 726 804 q 821 826 774 831 m 469 1069 q 467 1088 464 1085 q 493 1085 471 1090 q 551 1058 515 1081 q 604 1014 588 1036 q 592 938 635 978 q 444 867 549 897 q 379 844 394 850 l 376 846 q 400 878 378 854 q 472 980 460 944 q 469 1069 485 1015 z "},"演":{"ha":1250,"x_min":157,"x_max":1092,"o":"m 213 583 q 217 591 214 589 q 222 592 219 593 q 227 589 224 592 q 238 578 231 586 q 285 453 286 515 q 297 408 283 408 q 315 426 310 408 q 338 456 321 443 q 349 454 349 467 q 346 422 349 446 q 335 303 340 375 q 317 187 331 231 q 309 138 304 143 q 301 111 314 133 q 278 82 289 89 q 239 78 257 68 q 201 126 221 88 q 167 185 175 179 q 159 216 157 190 q 174 254 161 242 q 207 469 207 293 q 213 583 207 568 m 244 954 q 261 965 244 972 q 296 943 271 961 q 338 900 326 921 q 342 853 349 879 q 316 825 338 825 q 283 813 294 825 q 260 822 260 782 q 261 861 257 836 q 256 935 267 928 q 244 954 244 942 m 792 972 q 897 977 842 988 q 956 939 951 967 q 921 881 960 921 q 832 811 882 842 q 776 769 776 778 q 804 757 776 760 q 810 665 860 750 q 754 549 749 558 q 801 560 757 542 q 878 572 844 579 q 931 528 928 563 q 894 394 935 493 q 849 263 846 274 q 889 258 850 253 q 896 258 893 258 q 977 269 953 264 q 1043 243 1001 275 q 1078 210 1071 222 q 1090 172 1086 197 q 1082 114 1092 133 q 1038 78 1074 99 q 972 51 1001 58 q 853 44 908 40 q 929 117 868 47 q 990 199 990 188 q 962 226 990 215 q 896 235 933 236 q 703 132 796 226 q 621 58 653 79 q 540 24 589 38 q 482 17 497 11 q 449 57 467 22 q 435 110 436 79 q 446 146 435 140 q 483 156 456 153 q 626 253 543 164 q 682 343 686 315 q 647 333 681 358 q 611 313 622 313 q 580 349 601 313 q 558 400 558 386 q 601 458 558 413 q 667 549 644 504 q 711 624 690 593 q 725 654 732 654 q 692 642 719 654 q 654 621 665 631 q 590 599 639 610 q 542 592 554 590 q 507 613 531 593 q 454 675 472 638 q 437 735 440 704 q 444 774 433 765 q 465 831 453 779 q 483 882 476 882 q 510 853 490 882 q 539 825 531 825 q 646 891 547 825 q 792 972 744 957 m 844 900 q 751 881 844 933 q 593 760 656 828 q 542 685 565 729 q 522 625 518 640 q 585 646 526 618 q 729 761 643 674 q 822 861 800 835 q 844 900 844 888 m 839 467 q 838 482 846 483 q 776 444 826 481 q 732 389 700 389 q 764 369 746 389 q 792 361 781 353 q 818 410 804 369 q 839 467 832 450 m 740 226 q 731 236 740 235 q 710 233 722 238 q 688 221 697 229 q 653 199 668 207 q 646 184 639 190 q 670 188 653 178 q 714 208 688 199 q 740 226 740 218 m 669 1063 q 671 1090 665 1089 q 711 1074 676 1092 q 747 1038 740 1060 q 733 996 753 1017 q 706 979 719 981 q 667 988 693 978 q 647 999 649 996 q 658 1017 646 1003 q 669 1063 676 1035 z "},"示":{"ha":1250,"x_min":138,"x_max":1117,"o":"m 844 819 q 873 829 854 829 q 907 819 892 829 q 953 808 926 810 q 1017 800 1001 807 q 1032 772 1032 793 q 1024 749 1032 754 q 981 739 1017 744 q 879 733 932 733 q 722 702 829 733 q 614 658 614 671 q 678 624 614 650 q 751 588 738 600 q 765 547 765 576 q 772 489 765 517 l 776 461 l 869 461 q 956 457 936 463 q 1019 425 976 451 q 1097 365 1076 389 q 1110 315 1117 342 q 1032 234 1100 271 q 907 206 964 197 q 877 215 881 211 q 885 238 874 218 q 924 296 900 264 q 918 410 968 360 q 885 435 897 432 q 825 432 874 438 q 778 425 794 429 q 749 413 763 421 q 731 384 735 406 q 725 336 726 363 q 724 258 724 310 q 717 128 725 139 q 678 110 708 117 q 615 132 649 104 q 529 185 581 160 l 479 211 l 426 182 q 369 143 375 153 q 344 135 363 131 q 311 154 326 139 q 257 289 269 200 q 260 333 251 331 q 317 308 269 335 q 381 285 361 282 q 509 342 400 289 q 619 397 618 396 q 630 466 626 399 q 628 557 633 533 q 616 588 625 578 q 583 610 607 599 l 544 631 l 425 569 q 316 519 347 531 q 247 506 285 507 q 175 514 204 504 q 139 542 146 524 q 144 550 138 547 q 168 553 151 553 q 329 606 224 553 q 554 707 426 653 q 744 781 682 761 q 844 819 838 810 m 614 301 q 610 335 614 328 q 594 343 606 343 q 555 316 582 343 q 528 276 528 289 q 554 258 528 267 q 594 254 581 249 q 614 301 614 258 m 618 972 q 703 994 674 1000 q 819 964 815 979 q 801 933 822 953 q 764 914 779 914 q 692 889 747 914 q 578 862 640 865 q 488 878 517 858 q 465 911 450 903 q 476 914 468 914 q 618 972 496 914 z "}}}
